PathFileType	4	(X/Y/Z)	 s10c0201.trc
DataRate	CameraRate	NumFrames	NumMarkers	Units	OrigDataRate	OrigDataStartFrame	OrigNumFrames
200	200	4	50	mm	200	1501	2000
Frame#	Time	racr			lacr			c7			jug			rlel			rdr			llel			ldr			s2			lic			ric			lasi			rasi			rpsi			lpsi			rgt			lgt			rth1			rth2			rth3			rth4			rlfc			rmfc			rsh1			rsh2			rsh3			rsh4			rlmal			rmmal			rcal			rtoe			rmt5			lth1			lth2			lth4			lth3			llfc			lmfc			llmal			lmmal			lcal			lmt5			lsh1			lsh2			lsh3			lsh4			ltoe			SBIKE			LBIKE			RBIKE			
		X1	Y1	Z1	X2	Y2	Z2	X3	Y3	Z3	X4	Y4	Z4	X5	Y5	Z5	X6	Y6	Z6	X7	Y7	Z7	X8	Y8	Z8	X9	Y9	Z9	X10	Y10	Z10	X11	Y11	Z11	X12	Y12	Z12	X13	Y13	Z13	X14	Y14	Z14	X15	Y15	Z15	X16	Y16	Z16	X17	Y17	Z17	X18	Y18	Z18	X19	Y19	Z19	X20	Y20	Z20	X21	Y21	Z21	X22	Y22	Z22	X23	Y23	Z23	X24	Y24	Z24	X25	Y25	Z25	X26	Y26	Z26	X27	Y27	Z27	X28	Y28	Z28	X29	Y29	Z29	X30	Y30	Z30	X31	Y31	Z31	X32	Y32	Z32	X33	Y33	Z33	X34	Y34	Z34	X35	Y35	Z35	X36	Y36	Z36	X37	Y37	Z37	X38	Y38	Z38	X39	Y39	Z39	X40	Y40	Z40	X41	Y41	Z41	X42	Y42	Z42	X43	Y43	Z43	X44	Y44	Z44	X45	Y45	Z45	X46	Y46	Z46	X47	Y47	Z47	X48	Y48	Z48	X49	Y49	Z49	X50	Y50	Z50	
1501	7.5050	410.189158	1263.690004	-17.907023	443.995565	1302.465082	-326.080331	379.474398	1336.848411	-180.653119	393.211892	1186.712486	-187.048741	420.872684	1015.443724	83.243894	602.490057	913.439537	16.963382	509.945759	1069.580336	-476.532438	625.793478	908.991923	-371.247272	-108.958180	1085.097703	-205.343869	46.255142	1119.081727	-373.338843	75.983914	1114.772670	-68.674350	88.900592	1033.677897	-343.347723	82.867691	1029.729149	-90.944804	-70.456593	1140.362075	-152.427095	-68.996378	1151.049818	-263.585030	-11.924571	992.144502	-24.218229	-34.926665	969.014307	-402.286607	95.385494	892.993644	-7.107369	176.874919	861.608705	-24.507416	229.601864	794.243802	-31.769999	195.614603	891.635391	-36.834154	303.563703	725.682368	-51.683373	279.548307	712.315815	-166.959126	202.542318	664.992135	-19.886326	151.293492	594.213975	-37.086672	73.277731	557.678782	-41.685279	172.132096	575.559148	-63.495418	-10.110528	498.905365	-58.259943	21.543975	491.553380	-136.953898	-57.446371	517.735401	-109.897470	97.154411	331.042218	-93.888944	17.681868	373.266117	-38.604056	71.203435	876.614399	-417.366384	152.572733	847.255405	-408.342136	173.191191	877.363105	-403.089123	208.194405	778.436281	-397.502129	303.389279	711.793973	-377.701448	305.087446	711.614052	-260.524934	221.400674	345.397740	-372.544437	238.030655	350.318054	-291.448442	168.286446	311.900230	-331.924505	343.054473	264.176550	-385.553096	256.367904	599.583007	-402.796002	272.968385	514.220504	-390.092888	242.853071	430.751010	-387.260910	301.055816	515.177435	-364.590204	421.289238	297.503403	-325.045816	-204.652847	834.226402	-224.727586	-78.248131	81.599805	-423.787011	-102.685599	80.423939	-24.405936	
1502	7.5100	407.379115	1266.427211	-15.464209	444.730384	1299.810961	-325.081675	379.236234	1336.348901	-179.710177	393.202094	1186.452897	-184.246532	420.424875	1016.559651	82.326221	602.556486	913.608197	17.045360	509.962250	1068.240976	-476.766715	626.421518	909.674564	-371.844284	-109.501020	1083.623335	-208.881225	48.239434	1116.320491	-374.396502	73.781212	1115.366344	-68.591346	90.017426	1031.799654	-344.005131	81.483628	1029.392138	-91.709839	-71.668970	1139.109263	-155.663878	-69.046189	1148.930940	-267.112350	-11.544349	991.396338	-24.650214	-34.384504	964.438261	-404.663957	97.767030	896.299400	-9.001424	180.257699	867.714735	-26.288485	235.365699	802.256456	-32.723932	198.125490	899.801710	-39.637489	310.087930	734.551575	-53.020230	287.318744	719.815601	-168.442672	209.351844	673.552060	-20.329354	157.341525	602.974200	-37.376344	79.097591	566.901758	-41.384518	177.817024	584.397715	-63.788884	-4.904049	509.166768	-57.434902	25.799118	501.066921	-136.417082	-52.536889	528.796247	-108.427845	100.682004	340.501739	-93.909454	21.696549	383.239956	-38.265228	70.296533	870.199355	-417.793849	151.064229	839.365534	-407.875100	172.045536	868.727592	-402.142488	205.212716	769.889883	-395.520771	298.578087	704.036617	-374.813173	298.227897	702.839431	-258.645524	218.219260	335.889615	-372.255332	235.040118	340.512928	-291.240333	165.289943	302.808751	-331.767822	339.652468	253.995881	-385.495018	248.705249	591.055864	-401.134031	266.949651	506.000548	-389.541520	238.291950	421.901632	-386.524516	295.656230	507.075753	-364.625765	418.265166	286.674325	-325.053301	-204.693362	834.245003	-224.790384	-78.200898	81.669020	-423.688337	-102.681597	80.427305	-24.402681	
1503	7.5150	404.638187	1268.995931	-13.168852	445.283595	1297.138604	-324.206706	379.355225	1335.853078	-180.411450	393.143811	1186.113436	-181.455840	420.079932	1017.695893	81.634592	602.657842	913.825363	16.982095	509.458873	1066.927423	-477.135916	627.716567	910.651973	-373.133386	-109.872203	1082.321178	-212.661486	50.378642	1113.608754	-375.300258	71.418005	1116.016657	-68.434778	91.147254	1029.958558	-344.637284	80.332111	1029.267306	-92.353697	-72.788968	1137.875193	-159.320662	-68.766765	1147.058112	-270.819707	-11.622066	990.924974	-25.162855	-33.431559	960.703280	-407.167108	99.646438	900.049516	-10.958525	182.932566	873.989363	-28.327100	240.561768	810.624214	-33.705604	199.828691	906.444642	-41.396653	316.272949	743.745534	-54.374122	293.454201	727.479185	-169.911802	215.932923	682.384062	-20.863954	163.667076	611.866223	-37.499104	85.207452	576.344434	-41.130916	183.818875	593.420206	-64.174969	0.402583	519.237140	-56.929606	31.024647	511.020355	-136.157658	-46.476651	539.268332	-108.030044	104.830663	349.808693	-93.865846	26.321330	393.152874	-37.894178	69.343874	864.145154	-418.432194	150.201192	832.382683	-408.042475	170.930092	860.987773	-401.908016	202.198684	761.656416	-393.435361	293.162663	696.084285	-371.601533	291.215492	693.970884	-256.745116	214.433487	326.736656	-371.713311	231.443161	330.721248	-290.762751	161.581181	294.005451	-331.561884	335.556164	244.229332	-385.476726	241.059512	582.691004	-400.045733	260.341431	497.982944	-388.870000	232.849856	413.357632	-385.757316	289.658016	499.148206	-364.639714	414.546918	275.887195	-325.022104	-204.773918	834.304205	-224.984605	-78.244408	81.628114	-423.684921	-102.680484	80.431347	-24.397826	
1504	7.5200	401.998215	1271.428425	-11.025801	445.905295	1294.401646	-323.363605	378.086063	1335.515700	-179.401940	393.012335	1185.671391	-178.704297	419.843134	1018.736714	81.242250	602.779906	914.025764	16.688969	508.614367	1065.573653	-477.476739	628.648222	911.525064	-374.072091	-106.921202	1081.115121	-214.878262	52.474736	1110.951056	-375.739179	68.902596	1116.716822	-68.305085	92.386240	1028.033291	-345.105270	79.266256	1029.137980	-92.815812	-73.856816	1136.884436	-163.118115	-67.821797	1145.992031	-274.078132	-12.072104	990.780274	-25.739381	-31.532764	958.522065	-409.480269	100.942144	904.203397	-12.925116	185.107514	880.666699	-29.846396	244.853914	819.190621	-34.476614	200.950029	913.459324	-43.035461	322.406895	753.618077	-55.073901	299.727038	736.059129	-171.096481	222.466981	691.434741	-21.443231	170.111145	621.042327	-37.816068	91.550747	585.676776	-40.834570	190.102730	602.677984	-64.522393	6.404130	529.036188	-56.382212	37.337961	521.138544	-135.873024	-40.600122	549.010870	-107.969698	109.633851	359.054880	-93.731171	31.574861	402.641318	-37.643804	68.239544	858.618528	-419.354374	148.290284	825.447736	-407.592657	169.424279	853.566064	-401.186801	198.789401	753.950523	-391.357962	287.080171	688.204558	-368.704846	284.089024	685.250160	-254.837944	209.936548	317.842890	-370.886610	227.196294	321.014743	-290.011861	157.245502	285.433347	-331.290394	330.910694	234.722162	-385.504715	233.369114	574.313322	-399.006612	253.410741	489.608169	-388.315986	226.604392	405.013000	-384.799417	283.231472	491.263592	-364.780121	410.180654	265.622125	-325.041070	-204.864635	834.350613	-225.181201	-78.254801	81.546821	-423.785642	-102.682095	80.428124	-24.410011	
